<svg width="24" height="24" viewBox="0 0 24 24" fill="none" xmlns="http://www.w3.org/2000/svg">
<path d="M20.2076 8.44769C20.2076 8.25769 20.1376 8.0677 19.9876 7.9177C19.6976 7.6277 19.2176 7.6277 18.9276 7.9177L12.4076 14.4377C11.9276 14.9177 11.1476 14.9177 10.6676 14.4377L4.14762 7.9177C3.85762 7.6277 3.37762 7.6277 3.08762 7.9177C2.79762 8.2077 2.79762 8.68769 3.08762 8.97769L9.60762 15.4977C10.1176 16.0077 10.8076 16.2977 11.5376 16.2977C12.2676 16.2977 12.9576 16.0177 13.4676 15.4977L19.9876 8.97769C20.1276 8.82769 20.2076 8.63769 20.2076 8.44769Z" fill="#1A4045"/>
</svg>
